<svg xmlns="http://www.w3.org/2000/svg" viewBox="0 0 800 800">
  <defs>
    <linearGradient id="n-bg" x1=".08" y1=".05" x2=".92" y2=".95"><stop stop-color="#261d42"/><stop offset=".52" stop-color="#87365f"/><stop offset="1" stop-color="#f0a14f"/></linearGradient>
    <radialGradient id="n-glow"><stop stop-color="#ffd77d" stop-opacity=".9"/><stop offset="1" stop-color="#ff6b91" stop-opacity="0"/></radialGradient>
    <filter id="n-blur"><feGaussianBlur stdDeviation="26"/></filter>
  </defs>
  <rect width="800" height="800" rx="96" fill="url(#n-bg)"/>
  <circle cx="592" cy="204" r="210" fill="url(#n-glow)" filter="url(#n-blur)"/>
  <g fill="none" stroke="#fff" opacity=".13"><circle cx="400" cy="400" r="278"/><circle cx="400" cy="400" r="218"/><circle cx="400" cy="400" r="158"/></g>
  <path d="M343 240v296c-29-18-76-10-102 20-29 34-19 79 23 94 40 14 92-9 104-47 3-9 4-17 4-27V341l190-49v184c-30-18-77-10-103 20-29 34-18 80 24 94 40 14 92-9 104-47 3-9 4-18 4-27V184Z" fill="#ffe190"/>
  <path d="M372 341 562 292v54l-190 49Z" fill="#ff7e9d" opacity=".78"/>
  <g fill="#fff" opacity=".72"><rect x="128" y="310" width="18" height="180" rx="9"/><rect x="162" y="350" width="18" height="100" rx="9"/><rect x="196" y="328" width="18" height="144" rx="9"/></g>
</svg>
